<svg aria-hidden="true" style="position:absolute;width:0;height:0" width="24" height="24" xmlns="http://www.w3.org/2000/svg" overflow="hidden"><defs>
<symbol id="Rectangle" viewBox="0 0 24 24"><rect width="3" height="40" fill="#0E80AC"/></symbol>
<symbol id="Vector1" viewBox="0 0 24 24"><g opacity="0.8"><path d="M19.4184 9.713C19.4184 10.0436 19.4017 10.3741 19.3683 10.703C19.3626 10.7577 19.3439 10.8101 19.3137 10.8561C19.2836 10.902 19.2429 10.9401 19.1951 10.9671C19.1472 10.9942 19.0936 11.0094 19.0387 11.0115C18.9838 11.0136 18.9292 11.0025 18.8794 10.9792C17.7732 10.5008 16.5488 10.3658 15.365 10.5916C14.1811 10.8174 13.0924 11.3937 12.24 12.2457C11.3876 13.0977 10.8108 14.1862 10.5844 15.3699C10.3581 16.5537 10.4925 17.7781 10.9704 18.8846C10.9934 18.9343 11.0043 18.9887 11.0021 19.0434C10.9999 19.0982 10.9848 19.1516 10.958 19.1993C10.9311 19.2471 10.8933 19.2877 10.8477 19.318C10.802 19.3483 10.7499 19.3673 10.6954 19.3734C10.3669 19.4068 10.0369 19.4235 9.70666 19.4236C7.78588 19.424 5.90811 18.8549 4.31084 17.7881C2.71357 16.7212 1.46857 15.2047 0.733297 13.4302C-0.00197548 11.6557 -0.194483 9.70306 0.180123 7.81917C0.554729 5.93528 1.47962 4.2048 2.83781 2.8466C4.19601 1.48841 5.92649 0.563521 7.81038 0.188915C9.69427 -0.185691 11.6469 0.00681633 13.4214 0.742088C15.1959 1.47736 16.7124 2.72237 17.7793 4.31963C18.8461 5.9169 19.4153 7.79467 19.4148 9.71545L19.4184 9.713Z" fill="url(#paint0_linear_493_50533)"/><path d="M17.6523 0.645338V10.5979C16.5774 10.3873 15.4655 10.4742 14.4363 10.8493C13.4072 11.2243 12.5001 11.8733 11.8128 12.7261C11.1255 13.579 10.6841 14.6033 10.5363 15.6886C10.3885 16.7739 10.5399 17.879 10.9741 18.8846C10.9971 18.9343 11.0079 18.9887 11.0058 19.0434C11.0036 19.0982 10.9885 19.1516 10.9616 19.1993C10.9348 19.2471 10.897 19.2877 10.8513 19.318C10.8057 19.3483 10.7535 19.3673 10.6991 19.3734C10.3706 19.4068 10.0405 19.4235 9.71032 19.4236C8.15228 19.4254 6.61674 19.0517 5.2338 18.3341C3.85087 17.6165 2.6613 16.576 1.76588 15.301V0.644116C1.7662 0.559209 1.78324 0.475196 1.81603 0.396875C1.84882 0.318554 1.89671 0.247458 1.95698 0.187647C2.01724 0.127835 2.0887 0.0804797 2.16727 0.0482841C2.24583 0.0160884 2.32997 -0.000316978 2.41488 4.63872e-06H17.0058C17.177 4.33271e-06 17.3413 0.0679556 17.4625 0.188944C17.5837 0.309933 17.652 0.474073 17.6523 0.645338Z" fill="url(#paint1_linear_493_50533)"/><path d="M21.9998 16.5C21.9998 17.5878 21.6772 18.6512 21.0729 19.5556C20.4685 20.4601 19.6095 21.1651 18.6045 21.5813C17.5995 21.9976 16.4937 22.1065 15.4268 21.8943C14.3599 21.6821 13.3799 21.1583 12.6107 20.3891C11.8415 19.6199 11.3177 18.6399 11.1054 17.573C10.8932 16.5061 11.0021 15.4002 11.4184 14.3952C11.8347 13.3903 12.5397 12.5313 13.4441 11.9269C14.3486 11.3226 15.412 11 16.4998 11C17.9585 11 19.3574 11.5795 20.3889 12.6109C21.4203 13.6424 21.9998 15.0413 21.9998 16.5Z" fill="white"/><path d="M21.9998 16.5C21.9998 17.5878 21.6772 18.6512 21.0729 19.5556C20.4685 20.4601 19.6095 21.1651 18.6045 21.5813C17.5995 21.9976 16.4937 22.1065 15.4268 21.8943C14.3599 21.6821 13.3799 21.1583 12.6107 20.3891C11.8415 19.6199 11.3177 18.6399 11.1054 17.573C10.8932 16.5061 11.0021 15.4002 11.4184 14.3952C11.8347 13.3903 12.5397 12.5313 13.4441 11.9269C14.3486 11.3226 15.412 11 16.4998 11C17.9585 11 19.3574 11.5795 20.3889 12.6109C21.4203 13.6424 21.9998 15.0413 21.9998 16.5Z" fill="#57A300"/><path d="M8.27177 5.52934H14.3499C14.4414 5.52966 14.5291 5.56625 14.5937 5.63108C14.6583 5.69591 14.6945 5.7837 14.6945 5.87523V6.76256C14.6945 6.85408 14.6583 6.94188 14.5937 7.00671C14.5291 7.07154 14.4414 7.10812 14.3499 7.10845H8.27177C8.18003 7.10845 8.09205 7.07201 8.02719 7.00714C7.96232 6.94227 7.92588 6.85429 7.92588 6.76256V5.87523C7.92588 5.78349 7.96232 5.69551 8.02719 5.63065C8.09205 5.56578 8.18003 5.52934 8.27177 5.52934ZM7.97599 9.26812V10.1567C7.97599 10.2484 8.01243 10.3364 8.0773 10.4013C8.14216 10.4661 8.23014 10.5026 8.32188 10.5026H14.3988C14.4905 10.5026 14.5785 10.4661 14.6433 10.4013C14.7082 10.3364 14.7447 10.2484 14.7447 10.1567V9.26812C14.7443 9.17659 14.7077 9.08893 14.6429 9.02432C14.5781 8.95972 14.4903 8.92345 14.3988 8.92345H8.32188C8.27651 8.92329 8.23156 8.93208 8.1896 8.94933C8.14765 8.96658 8.10951 8.99194 8.07737 9.02397C8.04524 9.05599 8.01974 9.09404 8.00234 9.13593C7.98494 9.17783 7.97599 9.22275 7.97599 9.26812ZM8.30599 12.3163C8.21447 12.3167 8.1268 12.3532 8.0622 12.4181C7.9976 12.4829 7.96132 12.5707 7.96132 12.6622V13.5496C7.96132 13.6411 7.9976 13.7289 8.0622 13.7937C8.1268 13.8585 8.21447 13.8951 8.30599 13.8954H11.0768C11.3562 13.3134 11.7276 12.7801 12.1768 12.3163H8.30599ZM15.7065 19.1351C15.7403 19.1715 15.7816 19.2001 15.8276 19.219C15.8735 19.2378 15.923 19.2465 15.9726 19.2444C16.0222 19.2423 16.0707 19.2295 16.1149 19.2068C16.1591 19.1842 16.1978 19.1522 16.2284 19.1131L19.5761 14.8268C19.6187 14.7687 19.6368 14.6962 19.6265 14.6249C19.6163 14.5536 19.5784 14.4891 19.5211 14.4454L18.8978 13.9651C18.8395 13.9203 18.7659 13.9004 18.6931 13.9098C18.6202 13.9192 18.5541 13.9571 18.5091 14.0152L15.8887 17.3678L14.422 15.7911C14.372 15.7375 14.3028 15.7058 14.2295 15.7031C14.1562 15.7003 14.0848 15.7267 14.0309 15.7764L13.4564 16.3069C13.402 16.3577 13.3699 16.428 13.3672 16.5024C13.3655 16.5391 13.3711 16.5756 13.3837 16.61C13.3963 16.6445 13.4156 16.676 13.4405 16.7029L15.7065 19.1351Z" fill="white"/><path d="M4.97788 5.52934H6.2331C6.27991 5.52934 6.32626 5.53858 6.36949 5.55653C6.41272 5.57448 6.45199 5.60079 6.48503 5.63394C6.51807 5.6671 6.54424 5.70645 6.56205 5.74974C6.57985 5.79304 6.58893 5.83942 6.58877 5.88623V6.75156C6.58893 6.79837 6.57985 6.84475 6.56205 6.88804C6.54424 6.93134 6.51807 6.97069 6.48503 7.00384C6.45199 7.037 6.41272 7.06331 6.36949 7.08126C6.32626 7.09921 6.27991 7.10845 6.2331 7.10845H4.97788C4.93107 7.10845 4.88472 7.09921 4.84149 7.08126C4.79826 7.06331 4.75899 7.037 4.72595 7.00384C4.69291 6.97069 4.66674 6.93134 4.64893 6.88804C4.63113 6.84475 4.62205 6.79837 4.62221 6.75156V5.88623C4.62205 5.83942 4.63113 5.79304 4.64893 5.74974C4.66674 5.70645 4.69291 5.6671 4.72595 5.63394C4.75899 5.60079 4.79826 5.57448 4.84149 5.55653C4.88472 5.53858 4.93107 5.52934 4.97788 5.52934ZM4.6711 9.27912V10.1444C4.6711 10.2391 4.7087 10.3299 4.77563 10.3968C4.84256 10.4637 4.93334 10.5013 5.02799 10.5013H6.28077C6.37542 10.5013 6.4662 10.4637 6.53313 10.3968C6.60006 10.3299 6.63766 10.2391 6.63766 10.1444V9.27912C6.63782 9.2322 6.6287 9.18572 6.61082 9.14235C6.59294 9.09898 6.56666 9.05957 6.53349 9.0264C6.50031 8.99322 6.46091 8.96694 6.41753 8.94906C6.37416 8.93119 6.32768 8.92207 6.28077 8.92223H5.02799C4.98108 8.92207 4.9346 8.93119 4.89122 8.94906C4.84785 8.96694 4.80844 8.99322 4.77527 9.0264C4.7421 9.05957 4.71582 9.09898 4.69794 9.14235C4.68006 9.18572 4.67094 9.2322 4.6711 9.27912ZM4.65643 12.6732V13.5386C4.65627 13.5854 4.66535 13.6318 4.68316 13.675C4.70096 13.7183 4.72713 13.7577 4.76017 13.7908C4.79322 13.824 4.83248 13.8503 4.87571 13.8683C4.91894 13.8862 4.96529 13.8954 5.0121 13.8954H6.2661C6.31291 13.8954 6.35926 13.8862 6.40249 13.8683C6.44572 13.8503 6.48499 13.824 6.51803 13.7908C6.55107 13.7577 6.57724 13.7183 6.59505 13.675C6.61285 13.6318 6.62193 13.5854 6.62177 13.5386V12.6732C6.62193 12.6264 6.61285 12.58 6.59505 12.5367C6.57724 12.4935 6.55107 12.4541 6.51803 12.4209C6.48499 12.3878 6.44572 12.3615 6.40249 12.3435C6.35926 12.3256 6.31291 12.3163 6.2661 12.3163H5.01088C4.96417 12.3165 4.91795 12.3259 4.87486 12.3439C4.83177 12.3619 4.79266 12.3882 4.75974 12.4214C4.72683 12.4545 4.70076 12.4938 4.68304 12.537C4.66531 12.5802 4.65627 12.6265 4.65643 12.6732Z" fill="white"/></g><defs><linearGradient id="paint0_linear_493_50533" x1="11.0002" y1="0.319828" x2="11.0002" y2="21.5403" gradientUnits="userSpaceOnUse"><stop offset="0.134" stop-color="#005BA1"/><stop offset="1" stop-color="#003067"/></linearGradient><linearGradient id="paint1_linear_493_50533" x1="10.9984" y1="-0.0567528" x2="10.9984" y2="21.809" gradientUnits="userSpaceOnUse"><stop stop-color="#6F90B7"/><stop offset="0.619792" stop-color="#5E84A3"/><stop offset="0.96875" stop-color="#497393"/><stop offset="1" stop-color="#0078D4"/><stop offset="1" stop-color="#6F90B7"/></linearGradient></defs></symbol>
<symbol id="Vector2" viewBox="0 0 24 24"><path d="M7.06661 13.9115H12.9333V19.7782H7.06661V13.9115ZM0.222168 6.08932H6.08883V0.222656H1.04106C0.823874 0.222656 0.615586 0.308932 0.462015 0.462503C0.308443 0.616075 0.222168 0.824362 0.222168 1.04155V6.08932ZM1.04106 19.7782H6.08883V13.9115H0.222168V18.9593C0.222168 19.1765 0.308443 19.3848 0.462015 19.5384C0.615586 19.6919 0.823874 19.7782 1.04106 19.7782ZM0.222168 12.9338H6.08883V7.0671H0.222168V12.9338ZM13.9111 19.7782H18.9588C19.176 19.7782 19.3843 19.6919 19.5379 19.5384C19.6914 19.3848 19.7777 19.1765 19.7777 18.9593V13.9115H13.9111V19.7782ZM7.06661 12.9338H12.9333V7.0671H7.06661V12.9338ZM13.9111 12.9338H19.7777V7.0671H13.9111V12.9338ZM13.9111 0.222656V6.08932H19.7777V1.04155C19.7777 0.824362 19.6914 0.616075 19.5379 0.462503C19.3843 0.308932 19.176 0.222656 18.9588 0.222656H13.9111ZM7.06661 6.08932H12.9333V0.222656H7.06661V6.08932Z" fill="url(#paint0_linear_493_50534)"/><defs><linearGradient id="paint0_linear_493_50534" x1="9.99995" y1="19.7782" x2="9.99995" y2="0.222656" gradientUnits="userSpaceOnUse"><stop stop-color="#5C799B"/><stop offset="0.16" stop-color="#6F90B7"/><stop offset="0.53" stop-color="#6487B1"/><stop offset="0.82" stop-color="#6F90B7"/><stop offset="1" stop-color="#58779C"/></linearGradient></defs></symbol>
<symbol id="Vector3" viewBox="0 0 24 24"><path d="M1.31789 15.0981H13.6746C13.7826 15.0978 13.8861 15.0546 13.9624 14.9781C14.0387 14.9016 14.0816 14.7979 14.0816 14.6899V0.408226C14.0817 0.354675 14.0713 0.301619 14.0509 0.252098C14.0305 0.202578 14.0006 0.157566 13.9628 0.119643C13.925 0.08172 13.8801 0.0516312 13.8306 0.0311012C13.7811 0.0105711 13.7281 1.79942e-06 13.6746 1.79942e-06H1.31789C1.26424 -0.000157725 1.21108 0.0102911 1.16148 0.030749C1.11188 0.051207 1.06682 0.0812702 1.02888 0.119209C0.990938 0.157148 0.960875 0.202215 0.940417 0.251815C0.919959 0.301416 0.90951 0.354572 0.90967 0.408226V14.6899C0.90967 14.7982 0.952681 14.902 1.02924 14.9785C1.10579 15.0551 1.20963 15.0981 1.31789 15.0981Z" fill="#7893B2"/><path d="M16.0356 2.34423H3.67892V16.6259H16.0356V2.34423Z" fill="#83B9F9"/><path d="M16.0356 17.0341H3.67892C3.57075 17.0338 3.46711 16.9907 3.39062 16.9142C3.31413 16.8377 3.27102 16.7341 3.2707 16.6259V2.34423C3.27102 2.23606 3.31413 2.13241 3.39062 2.05593C3.46711 1.97944 3.57075 1.93633 3.67892 1.936H16.0356C16.1439 1.936 16.2477 1.97901 16.3242 2.05557C16.4008 2.13213 16.4438 2.23596 16.4438 2.34423V16.6222C16.4443 16.6761 16.4341 16.7296 16.4138 16.7796C16.3935 16.8295 16.3635 16.875 16.3255 16.9133C16.2876 16.9516 16.2424 16.982 16.1927 17.0027C16.1429 17.0234 16.0895 17.0341 16.0356 17.0341ZM4.08714 16.2177H15.6286V2.75245H4.08714V16.2177Z" fill="#7893B2"/><path d="M14.7669 4.14334H7.11092C6.94991 4.14495 6.79603 4.21004 6.68275 4.32447C6.56946 4.43891 6.50591 4.59343 6.50592 4.75445V21.2667C6.50591 21.4277 6.56946 21.5822 6.68275 21.6966C6.79603 21.8111 6.94991 21.8762 7.11092 21.8778H20.3794C20.5402 21.8759 20.6937 21.8106 20.8068 21.6962C20.9198 21.5818 20.9832 21.4275 20.9831 21.2667V10.3327C20.9832 10.1719 20.9198 10.0175 20.8068 9.90312C20.6937 9.78872 20.5402 9.72349 20.3794 9.72156H15.9794C15.8194 9.71997 15.6664 9.65572 15.5533 9.5426C15.4402 9.42948 15.376 9.27652 15.3744 9.11656V4.74956C15.3731 4.58896 15.3086 4.43533 15.195 4.32188C15.0813 4.20844 14.9275 4.1443 14.7669 4.14334Z" fill="white"/><path d="M14.487 4.917V9.064C14.4872 9.26399 14.5267 9.46199 14.6034 9.6467C14.6801 9.8314 14.7924 9.99919 14.9339 10.1405C15.0755 10.2818 15.2434 10.3938 15.4283 10.4702C15.6131 10.5466 15.8112 10.5858 16.0111 10.5857H20.1887V21.0968H7.30525V4.917H14.487ZM14.7804 4.01012H7.01192C6.84984 4.01012 6.69441 4.0745 6.5798 4.18911C6.4652 4.30371 6.40081 4.45915 6.40081 4.62123V21.3889C6.40081 21.551 6.4652 21.7064 6.5798 21.821C6.69441 21.9356 6.84984 22 7.01192 22H20.4771C20.6392 22 20.7947 21.9356 20.9093 21.821C21.0239 21.7064 21.0883 21.551 21.0883 21.3889V10.2923C21.0883 10.1303 21.0239 9.97482 20.9093 9.86022C20.7947 9.74561 20.6392 9.68123 20.4771 9.68123H16.0111C15.8491 9.68123 15.6936 9.61684 15.579 9.50224C15.4644 9.38763 15.4 9.23219 15.4 9.07012V4.62367C15.4 4.46159 15.3356 4.30616 15.221 4.19155C15.1064 4.07694 14.951 4.01256 14.7889 4.01256L14.7804 4.01012Z" fill="url(#paint0_linear_493_50555)"/><path d="M20.856 9.801L15.1825 4.14334V8.75356C15.1808 9.02953 15.2888 9.29486 15.4827 9.49126C15.6766 9.68766 15.9405 9.79907 16.2165 9.801H20.856Z" fill="#7893B2"/><path d="M18.139 12.2002H9.35003C9.01725 12.2002 8.74748 12.47 8.74748 12.8028V12.9384C8.74748 13.2712 9.01725 13.541 9.35003 13.541H18.139C18.4718 13.541 18.7416 13.2712 18.7416 12.9384V12.8028C18.7416 12.47 18.4718 12.2002 18.139 12.2002Z" fill="#7893B2"/><path d="M18.139 14.6031H9.35003C9.01725 14.6031 8.74748 14.8729 8.74748 15.2057V15.3413C8.74748 15.6741 9.01725 15.9439 9.35003 15.9439H18.139C18.4718 15.9439 18.7416 15.6741 18.7416 15.3413V15.2057C18.7416 14.8729 18.4718 14.6031 18.139 14.6031Z" fill="#7893B2"/><path d="M14.4443 17.0048H9.35003C9.01725 17.0048 8.74748 17.2746 8.74748 17.6073V17.743C8.74748 18.0758 9.01725 18.3456 9.35003 18.3456H14.4443C14.777 18.3456 15.0468 18.0758 15.0468 17.743V17.6073C15.0468 17.2746 14.777 17.0048 14.4443 17.0048Z" fill="#7893B2"/><defs><linearGradient id="paint0_linear_493_50555" x1="10.9998" y1="22" x2="10.9998" y2="0" gradientUnits="userSpaceOnUse"><stop stop-color="#0078D4"/><stop offset="0.817" stop-color="#5EA0EF"/></linearGradient></defs></symbol>
<symbol id="Vector4" viewBox="0 0 24 24"><path d="M3.09434 0H18.9059C19.1589 0 19.4119 0.146504 19.4119 0.293008V3.58935C19.4119 3.73584 19.1589 3.88235 18.9059 3.88235H3.09434C2.84135 3.88235 2.58838 3.73584 2.58838 3.58935V0.293008C2.58838 0.0732518 2.84135 0 3.09434 0Z" fill="#005BA1"/><path d="M1.17857 1.29395H20.8214C21.4762 1.29395 22 2.03344 22 2.95781V19.4116H0V2.95781C0 2.03344 0.523809 1.29395 1.17857 1.29395Z" fill="#7893B2"/><path d="M3.3648 13.8467H18.2471C18.506 13.8467 18.7648 14.1054 18.7648 14.3643V15.5289C18.7648 15.7878 18.506 16.0467 18.2471 16.0467H3.3648C3.10599 16.0467 2.84717 15.7878 2.84717 15.5289V14.3643C2.84717 14.1054 3.10599 13.8467 3.3648 13.8467Z" fill="#83B9F9"/><path d="M17.9883 10.2238C18.2742 10.2238 18.5059 9.99201 18.5059 9.70612C18.5059 9.42023 18.2742 9.18848 17.9883 9.18848C17.7023 9.18848 17.4706 9.42023 17.4706 9.70612C17.4706 9.99201 17.7023 10.2238 17.9883 10.2238Z" fill="#C3F1FF"/><path d="M3.88232 14.2357H17.7294V21.4827C17.7294 21.7416 17.4706 22.0003 17.2117 22.0003H4.39997C4.14115 22.0003 3.88232 21.7416 3.88232 21.4827V14.2357Z" fill="url(#paint0_linear_493_50556)"/><defs><linearGradient id="paint0_linear_493_50556" x1="10.8038" y1="22" x2="10.8038" y2="14.2479" gradientUnits="userSpaceOnUse"><stop stop-color="#C3F1FF"/><stop offset="0.999" stop-color="#9CEBFF"/></linearGradient></defs></symbol>
<symbol id="Vector5" viewBox="0 0 24 24"><path d="M10.3127 12.6857H15.4876V17.8605H10.3127V12.6857ZM4.27733 5.78622H9.44977V0.611328H4.99355C4.80295 0.611328 4.62015 0.687045 4.48538 0.821821C4.3506 0.956597 4.27489 1.13939 4.27489 1.32999L4.27733 5.78622ZM9.44977 17.8605V12.6857H4.27733V17.1419C4.27733 17.3321 4.35271 17.5145 4.48696 17.6492C4.62121 17.7839 4.80337 17.8599 4.99355 17.8605H9.44977ZM4.27733 11.824H9.44977V6.64911H4.27733V11.824ZM16.3529 17.8605H20.8091C20.9997 17.8605 21.1825 17.7848 21.3173 17.6501C21.4521 17.5153 21.5278 17.3325 21.5278 17.1419V12.6857H16.3504L16.3529 17.8605ZM10.3127 11.824H15.4876V6.64911H10.3127V11.824ZM16.3504 11.824H21.5253V6.64911H16.3504V11.824ZM16.3504 0.611328V5.78622H21.5253V1.32999C21.5253 1.13939 21.4496 0.956597 21.3148 0.821821C21.1801 0.687045 20.9973 0.611328 20.8067 0.611328H16.3504ZM10.3127 5.78622H15.4876V0.611328H10.3127V5.78622Z" fill="url(#paint0_linear_493_50558)"/><path d="M4.39403 16.3958L0.682108 20.1077C0.404792 20.3851 0.404792 20.8347 0.682108 21.112L0.752111 21.182C1.02943 21.4593 1.47904 21.4593 1.75636 21.182L5.46828 17.4701C5.74559 17.1928 5.74559 16.7431 5.46828 16.4658L5.39827 16.3958C5.12096 16.1185 4.67134 16.1185 4.39403 16.3958Z" fill="#556F8C"/><path d="M7.28277 18.8872C9.81003 18.8872 11.8588 16.8385 11.8588 14.3112C11.8588 11.784 9.81003 9.73522 7.28277 9.73522C4.75552 9.73522 2.70677 11.784 2.70677 14.3112C2.70677 16.8385 4.75552 18.8872 7.28277 18.8872Z" fill="#596C6F"/><path d="M7.27422 17.8227C9.25876 17.8227 10.8676 16.2139 10.8676 14.2293C10.8676 12.2448 9.25876 10.636 7.27422 10.636C5.28968 10.636 3.68089 12.2448 3.68089 14.2293C3.68089 16.2139 5.28968 17.8227 7.27422 17.8227Z" fill="white"/><defs><linearGradient id="paint0_linear_493_50558" x1="11.2918" y1="1.04419" x2="11.2918" y2="21.8221" gradientUnits="userSpaceOnUse"><stop stop-color="#81AAD9"/><stop offset="0.178" stop-color="#618DC1"/><stop offset="0.406" stop-color="#4E7BAF"/><stop offset="0.662" stop-color="#5378A4"/><stop offset="0.936" stop-color="#6F90B7"/><stop offset="1" stop-color="#6F90B7"/></linearGradient></defs></symbol>
<symbol id="Vector6" viewBox="0 0 24 24"><path d="M17.0034 1.98022L12.1268 10.658L6.969 5.40244L1.65234 12.2958L2.899 13.2736L7.11567 7.83466L12.469 13.298L18.3846 2.77466L17.0034 1.98022Z" fill="#B796F9"/><path d="M7.03012 8.62911C8.13714 8.62911 9.03456 7.72621 9.03456 6.61244C9.03456 5.49866 8.13714 4.59577 7.03012 4.59577C5.92309 4.59577 5.02567 5.49866 5.02567 6.61244C5.02567 7.72621 5.92309 8.62911 7.03012 8.62911Z" fill="url(#paint0_linear_493_50559)"/><path d="M12.469 13.628C13.576 13.628 14.4734 12.7251 14.4734 11.6113C14.4734 10.4976 13.576 9.59466 12.469 9.59466C11.362 9.59466 10.4646 10.4976 10.4646 11.6113C10.4646 12.7251 11.362 13.628 12.469 13.628Z" fill="url(#paint1_linear_493_50559)"/><path d="M17.5168 4.64466C18.6238 4.64466 19.5212 3.74177 19.5212 2.62799C19.5212 1.51422 18.6238 0.611328 17.5168 0.611328C16.4098 0.611328 15.5123 1.51422 15.5123 2.62799C15.5123 3.74177 16.4098 4.64466 17.5168 4.64466Z" fill="url(#paint2_linear_493_50559)"/><path d="M2.48345 14.508C3.59047 14.508 4.48789 13.6051 4.48789 12.4913C4.48789 11.3776 3.59047 10.4747 2.48345 10.4747C1.37642 10.4747 0.479004 11.3776 0.479004 12.4913C0.479004 13.6051 1.37642 14.508 2.48345 14.508Z" fill="url(#paint3_linear_493_50559)"/><path d="M8.74123 12.1247H6.27234C6.08333 12.1247 5.93012 12.2779 5.93012 12.4669V21.0469C5.93012 21.2359 6.08333 21.3891 6.27234 21.3891H8.74123C8.93023 21.3891 9.08345 21.2359 9.08345 21.0469V12.4669C9.08345 12.2779 8.93023 12.1247 8.74123 12.1247Z" fill="#7893B2"/><path d="M13.7646 15.3269H11.2957C11.1067 15.3269 10.9534 15.4801 10.9534 15.6691V21.0469C10.9534 21.2359 11.1067 21.3891 11.2957 21.3891H13.7646C13.9536 21.3891 14.1068 21.2359 14.1068 21.0469V15.6691C14.1068 15.4801 13.9536 15.3269 13.7646 15.3269Z" fill="#005BA1"/><path d="M18.7879 9.02022H16.319C16.13 9.02022 15.9768 9.17344 15.9768 9.36244V21.0469C15.9768 21.2359 16.13 21.3891 16.319 21.3891H18.7879C18.9769 21.3891 19.1301 21.2359 19.1301 21.0469V9.36244C19.1301 9.17344 18.9769 9.02022 18.7879 9.02022Z" fill="#005BA1"/><path d="M3.71789 15.3269H1.249C1.06 15.3269 0.906782 15.4801 0.906782 15.6691V21.0469C0.906782 21.2359 1.06 21.3891 1.249 21.3891H3.71789C3.9069 21.3891 4.06011 21.2359 4.06011 21.0469V15.6691C4.06011 15.4801 3.9069 15.3269 3.71789 15.3269Z" fill="#7893B2"/><defs><linearGradient id="paint0_linear_493_50559" x1="10.0001" y1="21.3891" x2="10.0001" y2="0.611328" gradientUnits="userSpaceOnUse"><stop stop-color="#773ADC"/><stop offset="1" stop-color="#B77AF4"/></linearGradient><linearGradient id="paint1_linear_493_50559" x1="10.0001" y1="21.3891" x2="10.0001" y2="0.67429" gradientUnits="userSpaceOnUse"><stop stop-color="#773ADC"/><stop offset="1" stop-color="#B77AF4"/></linearGradient><linearGradient id="paint2_linear_493_50559" x1="10.0001" y1="21.3261" x2="10.0001" y2="0.611328" gradientUnits="userSpaceOnUse"><stop stop-color="#773ADC"/><stop offset="1" stop-color="#B77AF4"/></linearGradient><linearGradient id="paint3_linear_493_50559" x1="10.0001" y1="21.3261" x2="10.0001" y2="0.611328" gradientUnits="userSpaceOnUse"><stop stop-color="#773ADC"/><stop offset="1" stop-color="#B77AF4"/></linearGradient></defs></symbol>
<symbol id="Vector7" viewBox="0 0 24 24"><path d="M21.972 10.2438V8.51806L21.7275 8.42762L19.8807 7.81651L19.3919 6.63584L20.3305 4.63873L19.1193 3.42751L18.8749 3.54973L17.1491 4.42729L15.9684 3.9384L15.2119 1.84962H13.4946L13.4042 2.09406L12.7931 3.94084L11.6124 4.42973L9.65563 3.49229L8.44441 4.70351L8.56663 4.94795L9.44418 6.67373L8.95529 7.8544L6.83596 8.61095V10.3343L7.08041 10.4247L8.92718 11.0358L9.41607 12.2165L8.47007 14.21L9.68007 15.42L9.92452 15.2977L11.6503 14.4202L12.831 14.9091L13.5875 16.9978H15.3133L15.405 16.7534L16.01 14.9066L17.1906 14.4177L19.189 15.3564L20.4002 14.1452L20.278 13.9007L19.4004 12.175L19.8893 10.9943L21.972 10.2438ZM14.4027 12.7482C13.7456 12.7487 13.1031 12.5542 12.5565 12.1895C12.0098 11.8248 11.5837 11.3061 11.3319 10.6991C11.0801 10.0922 11.0139 9.42415 11.1418 8.77958C11.2697 8.13502 11.5859 7.54287 12.0504 7.07803C12.5149 6.6132 13.1068 6.29656 13.7513 6.16819C14.3958 6.03981 15.0638 6.10545 15.671 6.35681C16.2782 6.60818 16.7971 7.03396 17.1623 7.58032C17.5274 8.12667 17.7223 8.76904 17.7223 9.42618C17.7228 9.86236 17.6373 10.2944 17.4706 10.6975C17.304 11.1006 17.0596 11.4669 16.7512 11.7754C16.4429 12.0839 16.0768 12.3287 15.6738 12.4956C15.2709 12.6625 14.8389 12.7483 14.4027 12.7482Z" fill="#546B85"/><path d="M15.2277 19.1859C15.6211 19.1869 15.9989 19.0317 16.278 18.7544C16.5571 18.4772 16.7148 18.1005 16.7164 17.707C16.7162 17.6474 16.7129 17.5879 16.7066 17.5286C16.1224 12.8646 13.4616 9.06714 8.3857 9.06714C3.22059 9.06714 0.556148 12.2828 0.0367031 17.5408C0.0165713 17.7357 0.035035 17.9326 0.0910392 18.1203C0.147043 18.308 0.23949 18.4829 0.363097 18.6349C0.486704 18.7869 0.639047 18.913 0.811422 19.0061C0.983797 19.0992 1.17282 19.1574 1.3677 19.1774C1.41719 19.1833 1.46698 19.1861 1.51681 19.1859H15.2277Z" fill="url(#paint0_linear_493_50565)"/><path d="M8.46515 10.172C7.56632 10.1734 6.68633 9.91443 5.93148 9.42648L8.43948 15.9788L10.9304 9.47048C10.1904 9.93033 9.33633 10.1734 8.46515 10.172Z" fill="white"/><path d="M8.43093 10.1733C11.0156 10.1733 13.1108 8.078 13.1108 5.49337C13.1108 2.90873 11.0156 0.813477 8.43093 0.813477C5.84629 0.813477 3.75104 2.90873 3.75104 5.49337C3.75104 8.078 5.84629 10.1733 8.43093 10.1733Z" fill="url(#paint1_linear_493_50565)"/><defs><linearGradient id="paint0_linear_493_50565" x1="11" y1="-1.4301" x2="11" y2="23.7263" gradientUnits="userSpaceOnUse"><stop offset="0.225" stop-color="#7DA3D0"/><stop offset="0.473" stop-color="#779FCF"/><stop offset="0.888" stop-color="#6F90B7"/><stop offset="0.999" stop-color="#198AB3"/><stop offset="1" stop-color="#51667F"/></linearGradient><linearGradient id="paint1_linear_493_50565" x1="8.02142" y1="0.404032" x2="9.03342" y2="12.9844" gradientUnits="userSpaceOnUse"><stop offset="0.225" stop-color="#789DC9"/><stop offset="0.473" stop-color="#729FD4"/><stop offset="0.888" stop-color="#6F90B7"/><stop offset="0.999" stop-color="#198AB3"/><stop offset="1" stop-color="#6F90B7" stop-opacity="0.8"/></linearGradient></defs></symbol></defs></svg>