<svg aria-hidden="true" style="position: absolute; width: 0; height: 0; overflow: hidden;" version="1.1" xmlns="http://www.w3.org/2000/svg" xmlns:xlink="http://www.w3.org/1999/xlink">
<defs>
<symbol id="icon--chevron-icon" viewBox="0 0 32 32">
<path d="M0.469 7.479c0.625-0.639 1.638-0.639 2.263 0l13.269 13.57 13.269-13.57c0.625-0.639 1.638-0.639 2.263 0s0.625 1.675 0 2.314l-14.4 14.727c-0.625 0.639-1.638 0.639-2.263 0l-14.4-14.727c-0.625-0.639-0.625-1.675 0-2.314z"></path>
</symbol>
<symbol id="icon--icon-_iOS-Chevron" viewBox="0 0 32 32">
<path d="M31.556 24.079c-0.592 0.606-1.553 0.606-2.145 0l-12.581-12.866-12.581 12.866c-0.592 0.606-1.553 0.606-2.145 0s-0.592-1.588 0-2.194l13.653-13.964c0.592-0.606 1.553-0.606 2.145 0l13.653 13.964c0.592 0.606 0.592 1.588 0 2.194z"></path>
</symbol>
<symbol id="icon-Add" viewBox="0 0 32 32">
<path stroke-linejoin="miter" stroke-linecap="butt" stroke-miterlimit="4" stroke-width="0.3333" d="M13.667 4c0.506 0 0.925 0.376 0.991 0.864l0.009 0.136 0.002 9.667h9.671c0.552 0 1 0.448 1 1 0 0.506-0.376 0.925-0.864 0.991l-0.136 0.009h-9.671l0.003 9.665c0 0.552-0.448 1-1 1-0.506 0-0.925-0.376-0.991-0.864l-0.009-0.136-0.003-9.666h-9.665c-0.552 0-1-0.448-1-1 0-0.506 0.376-0.925 0.864-0.991l0.136-0.009h9.665l-0.002-9.666c-0-0.552 0.447-1 1-1z"></path>
</symbol>
<symbol id="icon-arrow-60-left" viewBox="0 0 32 32">
<path d="M10.353 16.085l11.294-7.529v15.059l-11.294-7.529z"></path>
</symbol>
<symbol id="icon-Card-UI" viewBox="0 0 32 32">
<path d="M3.81 10.667c0-2.104 1.706-3.81 3.81-3.81h16.762c2.104 0 3.81 1.706 3.81 3.81v10.667c0 2.104-1.706 3.81-3.81 3.81h-16.762c-2.104 0-3.81-1.706-3.81-3.81v-10.667zM15.238 9.905h-7.619c-0.421 0-0.762 0.341-0.762 0.762s0.341 0.762 0.762 0.762h7.619c0.421 0 0.762-0.341 0.762-0.762s-0.341-0.762-0.762-0.762zM19.81 12.952h-12.19c-0.421 0-0.762 0.341-0.762 0.762s0.341 0.762 0.762 0.762h12.19c0.421 0 0.762-0.341 0.762-0.762s-0.341-0.762-0.762-0.762zM8.381 17.524c-0.842 0-1.524 0.682-1.524 1.524v1.524c0 0.842 0.682 1.524 1.524 1.524h6.095c0.842 0 1.524-0.682 1.524-1.524v-1.524c0-0.842-0.682-1.524-1.524-1.524h-6.095z"></path>
</symbol>
<symbol id="icon-Credit-Card-Person" viewBox="0 0 32 32">
<path d="M8 6.857c-2.314 0-4.19 1.876-4.19 4.19v9.905c0 2.314 1.876 4.19 4.19 4.19h8.076c0.114-0.563 0.353-1.081 0.685-1.524h-8.762c-1.473 0-2.667-1.194-2.667-2.667v-6.476h22.857v-3.429c0-2.314-1.876-4.19-4.19-4.19h-16zM5.333 11.048c0-1.473 1.194-2.667 2.667-2.667h16c1.473 0 2.667 1.194 2.667 2.667v1.905h-21.333v-1.905zM25.905 19.048c0 1.683-1.364 3.048-3.048 3.048s-3.048-1.364-3.048-3.048c0-1.683 1.364-3.048 3.048-3.048s3.048 1.364 3.048 3.048zM28.19 25.905c0 1.897-1.524 3.81-5.333 3.81s-5.333-1.905-5.333-3.81c0-1.262 1.023-2.286 2.286-2.286h6.095c1.262 0 2.286 1.023 2.286 2.286z"></path>
</symbol>
<symbol id="icon-Data-Usage" viewBox="0 0 32 32">
<path d="M16 16c-0.421 0-0.762 0.341-0.762 0.762v4.571c0 0.421 0.341 0.762 0.762 0.762s0.762-0.341 0.762-0.762v-4.571c0-0.421-0.341-0.762-0.762-0.762zM9.905 13.714c0-0.421 0.341-0.762 0.762-0.762s0.762 0.341 0.762 0.762v7.619c0 0.421-0.341 0.762-0.762 0.762s-0.762-0.341-0.762-0.762v-7.619zM21.333 9.905c-0.421 0-0.762 0.341-0.762 0.762v10.667c0 0.421 0.341 0.762 0.762 0.762s0.762-0.341 0.762-0.762v-10.667c0-0.421-0.341-0.762-0.762-0.762zM5.333 8.381c0-1.683 1.364-3.048 3.048-3.048h15.238c1.683 0 3.048 1.364 3.048 3.048v15.238c0 1.683-1.364 3.048-3.048 3.048h-15.238c-1.683 0-3.048-1.364-3.048-3.048v-15.238zM6.857 8.381v15.238c0 0.842 0.682 1.524 1.524 1.524h15.238c0.842 0 1.524-0.682 1.524-1.524v-15.238c0-0.842-0.682-1.524-1.524-1.524h-15.238c-0.842 0-1.524 0.682-1.524 1.524z"></path>
</symbol>
<symbol id="icon-Document-Bullet-List-Multiple" viewBox="0 0 32 32">
<path d="M14.476 10.667v-6.857h-5.333c-1.262 0-2.286 1.023-2.286 2.286v16.762c0 1.262 1.023 2.286 2.286 2.286h11.429c1.683 0 3.048-1.364 3.048-3.048v-9.143h-6.857c-1.262 0-2.286-1.023-2.286-2.286zM9.905 16.762c0-0.421 0.341-0.762 0.762-0.762s0.762 0.341 0.762 0.762c0 0.421-0.341 0.762-0.762 0.762s-0.762-0.341-0.762-0.762zM10.667 20.571c-0.421 0-0.762-0.341-0.762-0.762s0.341-0.762 0.762-0.762c0.421 0 0.762 0.341 0.762 0.762s-0.341 0.762-0.762 0.762zM13.714 17.524c-0.421 0-0.762-0.341-0.762-0.762s0.341-0.762 0.762-0.762h6.095c0.421 0 0.762 0.341 0.762 0.762s-0.341 0.762-0.762 0.762h-6.095zM12.952 19.81c0-0.421 0.341-0.762 0.762-0.762h6.095c0.421 0 0.762 0.341 0.762 0.762s-0.341 0.762-0.762 0.762h-6.095c-0.421 0-0.762-0.341-0.762-0.762zM16 10.667v-6.476l7.238 7.238h-6.476c-0.421 0-0.762-0.341-0.762-0.762zM26.667 14.476c0-0.842-0.682-1.524-1.524-1.524v9.143c0 2.525-2.047 4.571-4.571 4.571h-10.667c0 0.842 0.682 1.524 1.524 1.524h9.235c3.315 0 6.003-2.688 6.003-6.003v-7.711z"></path>
</symbol>
<symbol id="icon-expand-combine-icon" viewBox="0 0 32 32">
<path d="M0.419 28.95c-0.558-0.511-0.558-1.339 0-1.85l11.855-10.847-11.855-10.847c-0.558-0.511-0.558-1.339 0-1.85s1.463-0.511 2.022 0l12.866 11.772c0.558 0.511 0.558 1.339 0 1.85l-12.866 11.772c-0.558 0.511-1.463 0.511-2.022 0z"></path>
<path d="M16.694 28.443c-0.558-0.511-0.558-1.339 0-1.85l11.855-10.847-11.855-10.847c-0.558-0.511-0.558-1.339 0-1.85s1.463-0.511 2.021 0l12.865 11.772c0.558 0.511 0.558 1.339 0 1.85l-12.865 11.772c-0.558 0.511-1.463 0.511-2.021 0z"></path>
</symbol>
<symbol id="icon-History" viewBox="0 0 32 32">
<path d="M5.714 3.804l0.137 0.012c0.311 0.056 0.556 0.302 0.613 0.613l0.012 0.137-0.001 3.37c1.775-2.016 4.189-3.416 6.922-3.923 6.62-1.227 12.981 3.145 14.208 9.765s-3.145 12.981-9.765 14.208-12.981-3.145-14.208-9.765c-0.132-0.713-0.24-2.011-0.198-3.016 0.018-0.42 0.373-0.747 0.793-0.729s0.747 0.373 0.729 0.793c-0.037 0.884 0.061 2.068 0.174 2.674 1.074 5.792 6.64 9.618 12.432 8.544s9.618-6.64 8.544-12.432-6.64-9.618-12.432-8.544c-2.803 0.519-5.219 2.11-6.805 4.386l4.175 0.002 0.137 0.012c0.355 0.065 0.625 0.376 0.625 0.75s-0.27 0.685-0.625 0.75l-0.137 0.012h-5.33l-0.137-0.012c-0.311-0.056-0.556-0.302-0.613-0.613l-0.012-0.137v-6.095l0.012-0.137c0.056-0.311 0.302-0.556 0.613-0.613l0.137-0.012zM14.857 9.899l0.137 0.012c0.311 0.056 0.556 0.302 0.613 0.613l0.012 0.137v5.339h3.048l0.137 0.012c0.355 0.064 0.625 0.375 0.625 0.75s-0.269 0.685-0.625 0.75l-0.137 0.012h-3.809l-0.137-0.012c-0.311-0.056-0.556-0.302-0.613-0.613l-0.012-0.137v-6.101l0.012-0.137c0.056-0.311 0.302-0.556 0.613-0.613l0.137-0.012z"></path>
</symbol>
<symbol id="icon-Layer_1" viewBox="0 0 32 32">
<path stroke-linejoin="miter" stroke-linecap="butt" stroke-miterlimit="4" stroke-width="0.8" d="M20.4 28.8l-7.2-4.345v-4.932l-8.4-9.053v-2.652c0-1.663 1.345-3.018 3-3.018h18c1.655 0 3 1.354 3 3.018v2.652l-8.4 9.053v9.277zM14.4 23.77l4.8 2.897v-7.621l8.4-9.053v-2.176c0-0.998-0.808-1.811-1.8-1.811h-18c-0.992 0-1.8 0.812-1.8 1.811v2.176l8.4 9.053v4.724z"></path>
</symbol>
<symbol id="icon-Save" viewBox="0 0 32 32">
<path d="M4 7.667c0-2.025 1.642-3.667 3.667-3.667h13.286c1.149 0 2.251 0.457 3.064 1.269l2.714 2.714c0.813 0.813 1.269 1.915 1.269 3.064v13.286c0 2.025-1.642 3.667-3.667 3.667h-16.667c-2.025 0-3.667-1.642-3.667-3.667v-16.667zM7.667 6c-0.92 0-1.667 0.746-1.667 1.667v16.667c0 0.921 0.746 1.667 1.667 1.667h0.333v-7c0-1.657 1.343-3 3-3h10c1.657 0 3 1.343 3 3v7h0.333c0.921 0 1.667-0.746 1.667-1.667v-13.286c0-0.619-0.246-1.212-0.683-1.65l-2.714-2.714c-0.347-0.347-0.792-0.573-1.269-0.652v3.635c0 1.657-1.343 3-3 3h-6c-1.657 0-3-1.343-3-3v-3.667h-1.667zM22 26v-7c0-0.552-0.448-1-1-1h-10c-0.552 0-1 0.448-1 1v7h12zM11.333 6v3.667c0 0.552 0.448 1 1 1h6c0.552 0 1-0.448 1-1v-3.667h-8z"></path>
</symbol>
<symbol id="icon-Search" viewBox="0 0 31 32">
<path d="M13.44 7.040c3.888 0 7.040 3.152 7.040 7.040 0 1.714-0.612 3.284-1.63 4.505l5.283 5.282c0.25 0.25 0.25 0.655 0 0.905-0.222 0.222-0.567 0.247-0.817 0.074l-0.089-0.074-5.282-5.283c-1.221 1.018-2.791 1.63-4.505 1.63-3.888 0-7.040-3.152-7.040-7.040s3.152-7.040 7.040-7.040zM13.44 8.32c-3.181 0-5.76 2.579-5.76 5.76s2.579 5.76 5.76 5.76c3.181 0 5.76-2.579 5.76-5.76s-2.579-5.76-5.76-5.76z"></path>
</symbol>
<symbol id="icon-Send" viewBox="0 0 32 32">
<path d="M8.332 16l-4.345-11.172c-0.302-0.778 0.456-1.521 1.206-1.257l0.118 0.050 23.040 11.52c0.663 0.332 0.705 1.24 0.124 1.644l-0.124 0.074-23.040 11.52c-0.746 0.373-1.557-0.313-1.363-1.084l0.039-0.122 4.345-11.172zM6.679 6.451l3.34 8.588 8.483 0.001c0.486 0 0.888 0.361 0.951 0.83l0.009 0.13c0 0.486-0.361 0.888-0.83 0.951l-0.13 0.009-8.483-0.001-3.34 8.589 19.097-9.548-19.097-9.548z"></path>
</symbol>
<symbol id="icon-Shape-1" viewBox="0 0 32 32">
<path d="M3.314 19.090c1.34-6.319 6.932-10.808 13.218-10.808s11.877 4.489 13.218 10.808c0.11 0.521 0.63 0.856 1.16 0.747s0.87-0.62 0.759-1.141c-1.524-7.186-7.895-12.343-15.137-12.343s-13.613 5.157-15.137 12.343c-0.111 0.521 0.229 1.032 0.759 1.141s1.049-0.226 1.16-0.747zM16.532 12.141c-3.79 0-6.863 3.023-6.863 6.752s3.073 6.752 6.863 6.752c3.79 0 6.863-3.023 6.863-6.752s-3.073-6.752-6.863-6.752zM11.63 18.893c0-2.664 2.195-4.823 4.902-4.823s4.902 2.159 4.902 4.823-2.195 4.823-4.902 4.823c-2.707 0-4.902-2.159-4.902-4.823z"></path>
</symbol>
<symbol id="icon-Shape-2" viewBox="0 0 32 32">
<path d="M16.562 11.663c0.92 0 1.667-0.203 1.667 0.795v18.076c0 0.998-0.746 0.397-1.667 0.397s-1.667 0.601-1.667-0.397v-18.076c0-0.998 0.746-0.795 1.667-0.795zM16.562 5.661c1.473 0 2.667-0.643 2.667-2.24s-1.194-2.532-2.667-2.532c-1.473 0-2.667 0.934-2.667 2.532s1.194 2.24 2.667 2.24z"></path>
</symbol>
<symbol id="icon-Shape-3" viewBox="0 0 32 32">
<path stroke-linejoin="miter" stroke-linecap="butt" stroke-miterlimit="4" stroke-width="0.4211" d="M9.022 16.001c0 2.054-1.665 3.719-3.719 3.719s-3.719-1.665-3.719-3.719c0-2.054 1.665-3.719 3.719-3.719s3.719 1.665 3.719 3.719zM20.251 16.001c0 2.054-1.665 3.719-3.719 3.719s-3.719-1.665-3.719-3.719 1.665-3.719 3.719-3.719c2.054 0 3.719 1.665 3.719 3.719zM31.479 16.001c0 2.054-1.665 3.719-3.719 3.719s-3.719-1.665-3.719-3.719c0-2.054 1.665-3.719 3.719-3.719s3.719 1.665 3.719 3.719z"></path>
</symbol>
<symbol id="icon-Shape" viewBox="0 0 32 32">
<path d="M5.444 1.833c0-0.522-0.423-0.944-0.944-0.944s-0.944 0.423-0.944 0.944v9.256c0 0.626 0.507 1.133 1.133 1.133h9.256c0.522 0 0.944-0.423 0.944-0.944s-0.423-0.944-0.944-0.944h-6.789l6.56-5.702c3.149-2.738 7.921-2.404 10.659 0.745s2.404 7.921-0.745 10.659l-15.436 13.418c-0.394 0.342-0.435 0.939-0.093 1.332s0.939 0.435 1.332 0.093l15.436-13.418c3.937-3.422 4.354-9.387 0.932-13.324s-9.387-4.354-13.324-0.932l-7.032 6.113v-7.485z"></path>
</symbol>
<symbol id="icon-Vehicle-Car" viewBox="0 0 32 32">
<path d="M21.883 5.333c1.816 0 3.379 1.282 3.735 3.062l0.3 1.509h1.129c0.579 0 1.057 0.43 1.133 0.988l0.010 0.155c0 0.579-0.43 1.057-0.988 1.132l-0.155 0.010h-0.672l0.171 0.853c0.95 0.277 1.644 1.155 1.644 2.194v7.619c0 1.262-1.023 2.286-2.286 2.286h-0.762v1.524c0 0.842-0.682 1.524-1.524 1.524s-1.524-0.682-1.524-1.524v-1.524h-12.19v1.524c0 0.842-0.682 1.524-1.524 1.524s-1.524-0.682-1.524-1.524v-1.524h-0.762c-1.262 0-2.286-1.023-2.286-2.286v-7.619c0-1.040 0.694-1.917 1.644-2.194l0.169-0.853h-0.67c-0.631 0-1.143-0.512-1.143-1.143s0.512-1.143 1.143-1.143h1.128l0.302-1.509c0.356-1.781 1.92-3.062 3.736-3.062h11.765zM25.905 14.476h-19.81c-0.421 0-0.762 0.341-0.762 0.762v7.619c0 0.421 0.341 0.762 0.762 0.762h19.81c0.421 0 0.762-0.341 0.762-0.762v-7.619c0-0.421-0.341-0.762-0.762-0.762zM9.905 17.524c0.842 0 1.524 0.682 1.524 1.524s-0.682 1.524-1.524 1.524c-0.842 0-1.524-0.682-1.524-1.524s0.682-1.524 1.524-1.524zM22.095 17.524c0.842 0 1.524 0.682 1.524 1.524s-0.682 1.524-1.524 1.524c-0.842 0-1.524-0.682-1.524-1.524s0.682-1.524 1.524-1.524zM21.883 6.857h-11.765c-1.090 0-2.028 0.769-2.241 1.837l-0.852 4.258h17.951l-0.852-4.258c-0.214-1.068-1.152-1.837-2.241-1.837z"></path>
</symbol>
<symbol id="icon-untitled" viewBox="0 0 32 32">
<path d="M30.443 1.067c0.289 0 0.539 0.106 0.75 0.317s0.317 0.461 0.317 0.75v11.733c0 0.289-0.106 0.539-0.317 0.75s-0.461 0.317-0.75 0.317-0.539-0.106-0.75-0.317c-0.211-0.211-0.317-0.461-0.317-0.75v-9.15l-8.85 8.833c-0.211 0.211-0.461 0.317-0.75 0.317s-0.539-0.106-0.75-0.317c-0.211-0.211-0.317-0.461-0.317-0.75s0.106-0.539 0.317-0.75l8.833-8.85h-10.217c-0.289 0-0.539-0.106-0.75-0.317s-0.317-0.461-0.317-0.75c0-0.289 0.106-0.539 0.317-0.75s0.461-0.317 0.75-0.317h12.8zM2.709 17.067c0.289 0 0.539 0.106 0.75 0.317s0.317 0.461 0.317 0.75v9.15l8.85-8.833c0.211-0.211 0.461-0.317 0.75-0.317s0.539 0.106 0.75 0.317c0.211 0.211 0.317 0.461 0.317 0.75s-0.106 0.539-0.317 0.75l-8.833 8.85h9.15c0.289 0 0.539 0.106 0.75 0.317s0.317 0.461 0.317 0.75-0.106 0.539-0.317 0.75c-0.211 0.211-0.461 0.317-0.75 0.317h-11.733c-0.289 0-0.539-0.106-0.75-0.317s-0.317-0.461-0.317-0.75v-11.733c0-0.289 0.106-0.539 0.317-0.75s0.461-0.317 0.75-0.317z"></path>
</symbol>
</defs>
</svg>
